inDegrees=no
num_controls=7
num_derivatives=13
num_iterations=83
num_multipliers=7
num_parameters=0
num_slacks=7
num_states=26
objective=0.330003
objective_accelerations=0.043005
objective_balance=0.001416
objective_effort=0.031639
objective_height=0.252314
objective_ligament=0.001630
solver_duration=872.303253
status=Solve_Succeeded
success=true
DataType=double
version=3
OpenSimVersion=4.5
endheader
time	/jointset/ground_pelvis/pelvis_tilt/value	/jointset/ground_pelvis/pelvis_tx/value	/jointset/ground_pelvis/pelvis_ty/value	/jointset/hip_r/hip_flexion_r/value	/jointset/hip_r/hip_adduction_r/value	/jointset/hip_r/hip_rotation_r/value	/jointset/back/lumbar_extension/value	/jointset/patellofemoral_r/patellar_flexion_r/value	/jointset/knee_r/knee_flexion_r/value	/jointset/knee_r/knee_adduction_r/value	/jointset/knee_r/knee_rotation_r/value	/jointset/ankle_r/ankle_angle_r/value	/jointset/subtalar_r/subtalar_angle_r/value	/jointset/ground_pelvis/pelvis_tilt/speed	/jointset/ground_pelvis/pelvis_tx/speed	/jointset/ground_pelvis/pelvis_ty/speed	/jointset/hip_r/hip_flexion_r/speed	/jointset/hip_r/hip_adduction_r/speed	/jointset/hip_r/hip_rotation_r/speed	/jointset/back/lumbar_extension/speed	/jointset/patellofemoral_r/patellar_flexion_r/speed	/jointset/knee_r/knee_flexion_r/speed	/jointset/knee_r/knee_adduction_r/speed	/jointset/knee_r/knee_rotation_r/speed	/jointset/ankle_r/ankle_angle_r/speed	/jointset/subtalar_r/subtalar_angle_r/speed	/forceset/tau_hip_flexion_r	/forceset/tau_hip_adduction_r	/forceset/tau_hip_rotation_r	/forceset/tau_knee_flexion_r	/forceset/tau_ankle_angle_r	/forceset/tau_subtalar_angle_r	/forceset/tau_lumbar_extension	lambda_cid13_p0	lambda_cid14_p0	lambda_cid14_p1	lambda_cid14_p2	lambda_cid14_p3	lambda_cid14_p4	lambda_cid14_p5	/jointset/ground_pelvis/pelvis_tilt/accel	/jointset/ground_pelvis/pelvis_tx/accel	/jointset/ground_pelvis/pelvis_ty/accel	/jointset/hip_r/hip_flexion_r/accel	/jointset/hip_r/hip_adduction_r/accel	/jointset/hip_r/hip_rotation_r/accel	/jointset/back/lumbar_extension/accel	/jointset/patellofemoral_r/patellar_flexion_r/accel	/jointset/knee_r/knee_flexion_r/accel	/jointset/knee_r/knee_adduction_r/accel	/jointset/knee_r/knee_rotation_r/accel	/jointset/ankle_r/ankle_angle_r/accel	/jointset/subtalar_r/subtalar_angle_r/accel	gamma_cid13_p0	gamma_cid14_p0	gamma_cid14_p1	gamma_cid14_p2	gamma_cid14_p3	gamma_cid14_p4	gamma_cid14_p5
0	-0.01538901055537183	0.1361807026194703	0.9317591283634501	0.1934211968871041	-0.2453643008301819	-0.2304202250693095	-0.2903787966825928	0.2311786273363431	0.2311786273363406	0.1706500836149868	0.1727832317756133	0.089344008118978	0.0424467944944898	0	0	0	0	0	0	0	0	0	0	0	0	0	0.117173203403936	-0.06165240489655597	0.008456795962201247	-0.2541230818358028	0.1250953255195658	-0.1388970884961032	-0.03946144123053091	-30.04657854647963	-7.955578784886669	-56.13991952197368	3.002981742369816	5.9533399368107	-604.3174320863553	19.39549827977185	-2.744381684219057	-2.229052153020568	-0.9810594290596683	12.20098677307863	0.06913698632772043	3.044489928663233	-6.795279360575748	11.56538110325421	11.56538110325414	-2.985227726075658	0.24367022022998	2.941440036399799	0.842450845340882	8.876815477862247e-08	5.261596458486897e-08	-6.814448834389584e-07	2.434942315438027e-07	2.928144104583185e-08	2.172063477422087e-07	-4.023689720663435e-07
0.01	-0.01551897529873172	0.136071532880963	0.9317114749047443	0.1940154720574	-0.245358307659072	-0.2302657718941368	-0.2907208360562029	0.2317462601378304	0.2317462601378309	0.1704984081486978	0.1727887133470031	0.08949028655926593	0.04249179692659744	-0.02589370061876517	-0.02163134097866429	-0.009504485965965795	0.1182160509486135	0.001216209690144532	0.03063778392855103	-0.06796876597069292	0.1130249910056212	0.1130249910056209	-0.03024545331542106	0.001170115219300237	0.02926011725376708	0.009028717894435238	0.1157845710445525	-0.08159066427329377	0.008449655840642476	-0.2572400618955387	0.1277060841400803	-0.1235439076848094	-0.03726807349922311	-30.05155179305221	-6.399949835323116	-48.98876683093957	1.622006485916168	2.787126094516627	-605.9767067691464	34.68924388514252	-2.496978654205374	-2.09977820563103	-0.9311688728102709	11.53606815330803	0.1504396602657627	3.035556124359344	-6.731808902550688	11.09580495190012	11.09580495190012	-3.030845859309416	0.06480805073866563	2.9189805461159	0.9372378761878228	1.27643122129132e-07	5.113494294590421e-08	-8.824680405655058e-07	4.197339768020467e-07	6.068317073962208e-08	7.790074204855341e-08	-6.138711373109758e-07
0.02	-0.01590489992897929	0.1357521291056008	0.9315695714478895	0.1957727385166896	-0.2453396370510757	-0.2298125141797948	-0.2917293898269677	0.2334290922199066	0.2334290922199058	0.1700469498042284	0.172808121246187	0.08992930276734241	0.04262791766058807	-0.05119197737752659	-0.04204680737100614	-0.01884999962977657	0.2325982577994403	0.002535487376607584	0.05976090783343361	-0.1333028794307675	0.223039856118604	0.2230398561186036	-0.05995657563220524	0.002785265556945392	0.05854755355756413	0.01822366037658942	0.114395938685127	-0.1015289236500354	0.008442515719104766	-0.2603570419553056	0.1303168427605826	-0.1081907268735241	-0.03507470576793899	-30.06603974875245	-4.752315193009237	-41.8474695913654	0.2722653987477508	-0.2936460829710388	-606.1237727535444	49.64865003967265	-2.625296912218277	-1.985877235756098	-0.9492649686286635	11.43421795352129	0.08975058559142354	2.741557923929542	-6.268348858452065	10.96335592472654	10.96335592472653	-2.878361526348284	0.332677243898969	2.946903846405779	0.8756957628846644	1.665180894796415e-07	4.965392130693944e-08	-1.083491197692053e-06	5.959737220602908e-07	9.208490043341233e-08	-6.140486364510193e-08	-8.253733025556082e-07
0.03	-0.01654144494257883	0.1352335528338833	0.9313345529934032	0.1986565242298868	-0.2453081918431724	-0.2290756246535726	-0.293377034787063	0.2361970811354243	0.2361970811354235	0.169303341406092	0.1728462024273922	0.09065950176596478	0.0428551963165986	-0.0760255116945182	-0.06157422255474534	-0.0281633867676625	0.3436399694587306	0.003691538873189007	0.08754095848487155	-0.195737626864802	0.330025022117474	0.3300250221174736	-0.08845290178857539	0.004746456479542631	0.08731638649927173	0.0271125349911331	0.1077939504465867	-0.1010911652903793	0.009476298470906067	-0.253583968796079	0.1210360828683418	-0.1038301159640285	-0.02969206676151279	-30.08942710016334	-7.493668443691767	-40.34834051820376	-0.06417915337963709	0.8366393155122273	-606.1510898645354	51.526533843818	-2.398644134073526	-1.922021453219966	-0.923842755211377	10.86131846738052	0.1191852299745445	2.784950964373409	-6.157764827296747	10.48612774662735	10.48612774662734	-2.788551231109801	0.1152858916552361	2.815516453751182	0.8774530286226402	1.839253729991469e-07	4.758195919363373e-08	-1.177224796879367e-06	6.464645403258499e-07	1.070822162332212e-07	-1.518277351541112e-07	-8.938708707820155e-07
0.04	-0.01742357778787484	0.1345225328516209	0.9310061072337692	0.2026351611987253	-0.2452670555606457	-0.228063190155113	-0.2956343726497828	0.2400189278727669	0.2400189278727663	0.1682841131322571	0.1729013846928495	0.0916721177811423	0.04316775766233129	-0.1003095437168674	-0.08053554947999013	-0.03753546065927905	0.4515685089279191	0.004473702301087068	0.1148699022812104	-0.2552414599555379	0.43381142048275	0.4338114204827496	-0.1150805507780847	0.00620548241074657	0.1150309568688976	0.0352801983210143	0.1011919622080389	-0.1006534069307109	0.01051008122265497	-0.2468108956368437	0.1117553229761079	-0.09946950505451539	-0.02430942775509934	-30.12029826275109	-10.1514518545133	-38.8572991865824	-0.3733794761368104	2.037591680510639	-604.8130706452523	53.096233236003	-2.51539645328977	-1.872659584057235	-0.9610023193747859	10.81158351550092	0.01497297185475233	2.651336552909728	-5.682165989792339	10.32360239800773	10.32360239800773	-2.504626092976115	0.2322442456203145	2.736051331989418	0.7314535059521663	2.008900238623429e-07	4.549781274065088e-08	-1.268746240232883e-06	6.943625972101164e-07	1.217412966950098e-07	-2.412427152366329e-07	-9.594198906162944e-07
0.05	-0.01854608367619473	0.1336249483838022	0.9305833611663887	0.2076779037294008	-0.2452195857801565	-0.226782038663608	-0.298472146339573	0.2448633276679518	0.2448633276679524	0.1670069777488316	0.1729705969044877	0.09295715502375336	0.04355906686058766	-0.1240611078253834	-0.09886268277996933	-0.04704045489056743	0.5564019543158394	0.005008468876269173	0.1411779563671771	-0.3119011513673065	0.534544641726707	0.5345446417267076	-0.1401352701938759	0.007606674767082183	0.1418461453992197	0.04293993187041772	0.09518610828052294	-0.09530746059213345	0.01130646196548265	-0.2425296065363347	0.1072772186463778	-0.09937749217573634	-0.01940633726318696	-30.15709680602961	-11.47631818722436	-39.11188240445802	-0.2613229152300434	2.155656070981137	-603.6086306729233	51.00447076541806	-2.285440625613192	-1.794916540743813	-0.9493022571512556	10.23252960681102	0.07091132049920704	2.593323134096816	-5.596051721534354	9.86955714838402	9.869557148384157	-2.474339244620706	0.08965630822259633	2.634726879135511	0.7768596502485913	1.909751991224512e-07	4.153076425388153e-08	-1.119317055961672e-06	7.413520633078404e-07	1.141816768592222e-07	-2.924892957785827e-07	-9.382617983781196e-07
